<svg id="Layer_1" xmlns="http://www.w3.org/2000/svg" width="83.6" height="81" viewBox="0 0 83.6 81">
	<style>
		.st0{fill:#555}
	</style>
	<path class="st0" d="M32.5 0C14.6 0 0 14.6 0 32.5S14.6 65 32.5 65c7.8 0 14.9-2.7 20.4-7.2.2.4.4.9.8 1.3L74 79.3c1.1 1.1 2.6 1.7 4 1.7 1.5 0 2.9-.6 4-1.7 2.2-2.2 2.2-5.9 0-8.1L61.8 51c-.6-.6-1.2-1-1.9-1.2 3.2-5 5-10.9 5-17.2C64.9 14.6 50.4 0 32.5 0zm0 10.1C44.9 10.1 55 20.2 55 32.6c0 4.2-1.2 8.3-3.4 11.9l-2.1 3.2-2.9 2.3c-4.1 3.3-8.9 5-14.1 5C20.1 55 10 44.9 10 32.5c0-12.3 10.1-22.4 22.5-22.4z" />
</svg>
