<?xml version="1.0" encoding="utf-8"?>
<!-- Generator: Adobe Illustrator 22.0.1, SVG Export Plug-In . SVG Version: 6.00 Build 0) -->
<svg version="1.1" id="Layer_1" xmlns="http://www.w3.org/2000/svg" xmlns:xlink="http://www.w3.org/1999/xlink" x="0px" y="0px" viewBox="0 0 83.6 81" style="enable-background:new 0 0 83.6 81;" xml:space="preserve">
	<style type="text/css">
		.st0{fill:#555555;}
		.st1{fill:none;stroke:#555555;stroke-width:9;stroke-linecap:round;stroke-miterlimit:10;}
	</style>
	<path class="st0" d="M32.5,0C14.6,0,0,14.6,0,32.5S14.6,65,32.5,65c7.8,0,14.9-2.7,20.4-7.2c0.2,0.4,0.4,0.9,0.8,1.3L74,79.3
	c1.1,1.1,2.6,1.7,4,1.7c1.5,0,2.9-0.6,4-1.7c2.2-2.2,2.2-5.9,0-8.1L61.8,51c-0.6-0.6-1.2-1-1.9-1.2c3.2-5,5-10.9,5-17.2
	C64.9,14.6,50.4,0,32.5,0z M32.5,10.1C44.9,10.1,55,20.2,55,32.6c0,4.2-1.2,8.3-3.4,11.9l-2.1,3.2L46.6,50c-4.1,3.3-8.9,5-14.1,5
	C20.1,55,10,44.9,10,32.5C10,20.2,20.1,10.1,32.5,10.1z" />
	<line class="st1" x1="22.4" y1="32.5" x2="42.4" y2="32.5" />
</svg>
